[Header]
FileType HTR
DataType HTRS
FileVersion 1
NumSegments 22
NumFrames 8
DataFrameRate 24
EulerRotationOrder ZYX
CalibrationUnits mm
RotationUnits Degrees
GlobalAxisofGravity Y
BoneLengthAxis Y
ScaleFactor 1.0
[SegmentNames&Hierarchy]
reference	GLOBAL
Hips	reference
Spine	Hips
Spine1	Spine
Neck	Spine1
Head	Neck
LeftShoulder	Spine1
LeftArm	LeftShoulder
LeftForeArm	LeftArm
LeftHand	LeftForeArm
RightShoulder	Spine1
RightArm	RightShoulder
RightForeArm	RightArm
RightHand	RightForeArm
LeftUpLeg	Hips
LeftLeg	LeftUpLeg
LeftFoot	LeftLeg
LeftToeBase	LeftFoot
RightUpLeg	Hips
RightLeg	RightUpLeg
RightFoot	RightLeg
RightToeBase	RightFoot
[BasePosition]
reference	0	0	0	0	0	0	1
Hips	0	0	0	0	0	0	1
Spine	0	0	0	0	-0	90	1
Spine1	0	0	0	0	0	0	1
Neck	0	0	0	-7.352430803	-7.352430803	90	1
Head	0	0	0	0	-0	90	1
LeftShoulder	0	0	0	0	0	0	1
LeftArm	0	0	0	0	0	0	1
LeftForeArm	0	0	0	0	0	0	1
LeftHand	0	0	0	0	0	0	1
RightShoulder	0	0	0	0	-0	180	1
RightArm	0	0	0	0	-0	180	1
RightForeArm	0	0	0	0	-0	180	1
RightHand	0	0	0	0	-0	180	1
LeftUpLeg	0	0	0	0	-0	-90	1
LeftLeg	0	0	0	0	-0	-90	1
LeftFoot	0	0	0	66.57150701	-66.57150701	-90	1
LeftToeBase	0	0	0	0	-90	0	1
RightUpLeg	0	0	0	0	-0	-90	1
RightLeg	0	0	0	0	-0	-90	1
RightFoot	0	0	0	66.57150701	-66.57150701	-90	1
RightToeBase	0	0	0	0	-90	0	1
[reference]
47	0	0	0	0	-0	0	1.0
48	0	0	0	0	-0	0	1.0
49	0	0	0	0	-0	0	1.0
50	0	0	0	0	-0	0	1.0
51	0	0	0	0	-0	0	1.0
52	0	0	0	0	-0	0	1.0
53	0	0	0	0	-0	0	1.0
54	0	0	0	0	-0	0	1.0
[Hips]
47	8.237091064	8.528654099	-1.866627693	188.8725433	-103.9018326	-187.5858002	1.0
48	8.409410477	8.623807907	-2.013824224	194.344101	-102.6415558	-192.3493195	1.0
49	8.562099457	8.627873421	-2.139977694	197.2177734	-102.056694	-194.3929596	1.0
50	8.716034889	8.623776436	-2.265530109	197.5252686	-101.8149796	-195.1018982	1.0
51	8.882574081	8.607904434	-2.390259266	193.5935059	-102.4585876	-190.6930237	1.0
52	9.05085659	8.58743763	-2.519705772	189.0788879	-104.2497559	-185.5500488	1.0
53	9.21059227	8.567357063	-2.654609919	186.7435913	-106.2406769	-184.151947	1.0
54	9.374521255	8.546236038	-2.815047264	184.8724976	-107.2619019	-184.0443726	1.0
[Spine]
47	0	0.7478299737	0	0.05392117053	1.3644768	-90.40096283	1.0
48	0	0.7478299737	0	-0.07618661225	1.998322368	-89.45755005	1.0
49	0	0.7478299737	0	-1.352344275	2.388617277	-89.69193268	1.0
50	0	0.7478299737	0	-1.048763514	2.797267437	-89.64923859	1.0
51	0	0.7478299737	0	-2.074869156	3.163636923	-90.66447449	1.0
52	0	0.7478299737	0	-3.00647974	3.467662096	-91.19975281	1.0
53	0	0.7478299737	0	-2.180813789	4.232323647	-90.53475189	1.0
54	0	0.7478299737	0	-0.307356447	5.120950222	-89.88771057	1.0
[Spine1]
47	0	2.049309969	0	4.643008232	0.3413261771	-0.1912808269	1.0
48	0	2.049309969	0	3.459275007	0.6517459154	0.3131824732	1.0
49	0	2.049309969	0	2.761502266	0.771107614	0.9834389687	1.0
50	0	2.049309969	0	2.634626865	0.9043726325	1.12588644	1.0
51	0	2.049309969	0	3.477110147	1.001523376	1.59815979	1.0
52	0	2.049309969	0	4.274138451	1.092415571	1.91065979	1.0
53	0	2.049309969	0	4.066902637	1.354019046	1.694641709	1.0
54	0	2.049309969	0	3.166887045	1.64833653	1.585885525	1.0
[Neck]
47	0	2.231709957	0	-13.18775082	13.3483448	-85.59369659	1.0
48	0	2.231709957	0	-12.36822128	13.66985416	-86.1446228	1.0
49	0	2.231709957	0	-11.38135147	14.27945328	-86.42590332	1.0
50	0	2.231709957	0	-11.14680481	14.73861504	-86.18296051	1.0
51	0	2.231709957	0	-12.49320889	14.30352211	-87.45860291	1.0
52	0	2.231709957	0	-14.44015694	13.30666065	-88.68618774	1.0
53	0	2.231709957	0	-13.94060802	12.18569469	-88.77902985	1.0
54	0	2.231709957	0	-11.96261311	11.44552231	-89.09687042	1.0
[Head]
47	0	1.413589954	0.1823999882	-7.378040314	6.256658554	-94.49395752	1.0
48	0	1.413589954	0.1823999882	-6.81197834	6.759956837	-95.89079285	1.0
49	0	1.413589954	0.1823999882	-7.369376183	7.474293709	-97.24302673	1.0
50	0	1.413589954	0.1823999882	-8.157715797	7.962820053	-98.61427307	1.0
51	0	1.413589954	0.1823999882	-7.16546154	7.474686623	-96.42786407	1.0
52	0	1.413589954	0.1823999882	-5.319833279	6.507655144	-94.97572327	1.0
53	0	1.413589954	0.1823999882	-5.543561459	5.470431328	-96.61518097	1.0
54	0	1.413589954	0.1823999882	-5.952667713	4.711423397	-96.76383209	1.0
[LeftShoulder]
47	0.3649300039	1.825889945	-0.04271000251	-13.90413666	-7.814731598	4.002705574	1.0
48	0.3649300039	1.825889945	-0.04271000251	-13.80643368	-9.563339233	6.207789898	1.0
49	0.3649300039	1.825889945	-0.04271000251	-10.78463936	-8.130681992	7.200935364	1.0
50	0.3649300039	1.825889945	-0.04271000251	-10.30961895	-8.738195419	10.17000008	1.0
51	0.3649300039	1.825889945	-0.04271000251	-10.38497353	-7.866163731	12.28530788	1.0
52	0.3649300039	1.825889945	-0.04271000251	-10.2057476	-8.013019562	13.08731461	1.0
53	0.3649300039	1.825889945	-0.04271000251	-6.515971184	-7.100874901	10.00087929	1.0
54	0.3649300039	1.825889945	-0.04271000251	-8.956325531	-8.641651154	10.37454033	1.0
[LeftArm]
47	1.24003005	0	0	43.08812332	5.742745876	-81.69351959	1.0
48	1.24003005	0	0	37.4719696	12.46161652	-77.47140503	1.0
49	1.24003005	0	0	33.21619797	16.3699131	-71.19822693	1.0
50	1.24003005	0	0	23.86933327	23.07726479	-67.88843536	1.0
51	1.24003005	0	0	18.02894783	26.30618668	-64.70119476	1.0
52	1.24003005	0	0	14.82956696	27.20703697	-62.94140244	1.0
53	1.24003005	0	0	16.31040001	22.1742115	-59.64734268	1.0
54	1.24003005	0	0	17.9093895	23.85078239	-61.38993073	1.0
[LeftForeArm]
47	2.847419977	0	0	-5.126202106	-5.735079765	-8.218770027	1.0
48	2.847419977	0	0	0.2968949974	-4.172777176	-12.72558308	1.0
49	2.847419977	0	0	5.846564293	-6.498524666	-19.46119499	1.0
50	2.847419977	0	0	12.7898922	-6.155029774	-23.70838165	1.0
51	2.847419977	0	0	15.79337978	-3.218506098	-25.50241089	1.0
52	2.847419977	0	0	13.85763359	-0.7947573662	-23.88210297	1.0
53	2.847419977	0	0	10.2246666	1.522059917	-20.93305588	1.0
54	2.847419977	0	0	7.854475021	3.087866068	-17.2412281	1.0
[LeftHand]
47	2.258270025	0	0	-5.543048859	3.797081947	-0.1151011214	1.0
48	2.258270025	0	0	-0.6037994027	3.509314537	-14.03861141	1.0
49	2.258270025	0	0	4.515493393	2.770673752	-8.888234138	1.0
50	2.258270025	0	0	11.45439816	1.005335689	-4.863419056	1.0
51	2.258270025	0	0	15.00954437	1.160556197	-5.463047504	1.0
52	2.258270025	0	0	13.51481247	3.385606289	-5.902731895	1.0
53	2.258270025	0	0	10.27418327	4.755541801	-5.561117172	1.0
54	2.258270025	0	0	8.139490128	4.617610931	-4.564002991	1.0
[RightShoulder]
47	-0.3646599948	1.825889945	-0.04271000251	-10.59590435	10.05090237	177.0379333	1.0
48	-0.3646599948	1.825889945	-0.04271000251	-7.97278595	10.62118912	177.3096619	1.0
49	-0.3646599948	1.825889945	-0.04271000251	-8.092219353	10.46475315	177.0098572	1.0
50	-0.3646599948	1.825889945	-0.04271000251	-8.382200241	10.69761372	176.4644318	1.0
51	-0.3646599948	1.825889945	-0.04271000251	-10.18251133	10.65611839	175.0562897	1.0
52	-0.3646599948	1.825889945	-0.04271000251	-11.52774239	10.6132946	173.824707	1.0
53	-0.3646599948	1.825889945	-0.04271000251	-11.14052486	10.3786087	173.9301758	1.0
54	-0.3646599948	1.825889945	-0.04271000251	-10.74453735	10.81842327	174.1820984	1.0
[RightArm]
47	-1.24003005	0	0	62.59456635	3.119793892	-95.8200531	1.0
48	-1.24003005	0	0	71.21669006	10.30805016	-96.54144287	1.0
49	-1.24003005	0	0	77.18369293	15.33272839	-97.31119537	1.0
50	-1.24003005	0	0	78.52883148	19.9684124	-98.46042633	1.0
51	-1.24003005	0	0	77.00896454	22.59200287	-98.70602417	1.0
52	-1.24003005	0	0	77.09463501	23.52955246	-98.71579742	1.0
53	-1.24003005	0	0	77.1690979	23.85595131	-99.51200104	1.0
54	-1.24003005	0	0	78.37522125	22.90065765	-99.89592743	1.0
[RightForeArm]
47	-2.847419977	0	0	6.021081924	19.17347908	179.0242615	1.0
48	-2.847419977	0	0	9.281452179	30.00352478	177.4876251	1.0
49	-2.847419977	0	0	10.7026577	42.5351944	175.3050385	1.0
50	-2.847419977	0	0	9.183419228	54.65771866	172.1302948	1.0
51	-2.847419977	0	0	7.882845879	64.20513153	170.4906616	1.0
52	-2.847419977	0	0	1.772763848	69.73883057	162.4100189	1.0
53	-2.847419977	0	0	-3.12951827	72.33070374	156.528656	1.0
54	-2.847419977	0	0	-4.845682144	73.25013733	154.6078491	1.0
[RightHand]
47	-2.258270025	0	0	5.508923531	8.356370926	170.5581818	1.0
48	-2.258270025	0	0	8.731257439	11.12210655	167.6802063	1.0
49	-2.258270025	0	0	10.86065578	12.92886734	165.3394623	1.0
50	-2.258270025	0	0	11.49239159	14.04951096	165.9175415	1.0
51	-2.258270025	0	0	12.10734749	14.53074837	166.498703	1.0
52	-2.258270025	0	0	12.51395893	13.94761086	166.9812775	1.0
53	-2.258270025	0	0	12.62817287	13.64221191	167.4163971	1.0
54	-2.258270025	0	0	11.90674591	13.17016125	169.0847626	1.0
[LeftUpLeg]
47	0.9119900465	0	0	-8.032981873	3.140402317	90.69032288	1.0
48	0.9119900465	0	0	-4.516667366	-0.04435403645	92.54053497	1.0
49	0.9119900465	0	0	-2.849105597	1.43356657	92.97055054	1.0
50	0.9119900465	0	0	-0.6469689608	2.577107191	93.31375885	1.0
51	0.9119900465	0	0	-1.124300122	1.916296959	93.21107483	1.0
52	0.9119900465	0	0	-4.191614628	0.3107181787	92.98194885	1.0
53	0.9119900465	0	0	-6.07426405	0.3283970058	93.31903076	1.0
54	0.9119900465	0	0	-6.707352161	1.808600426	93.57426453	1.0
[LeftLeg]
47	0	-4.371409893	0	25.706707	-6.129293442	83.50144958	1.0
48	0	-4.371409893	0	14.2997694	0.3287038803	86.12162781	1.0
49	0	-4.371409893	0	5.89398241	0.4499458671	86.99340057	1.0
50	0	-4.371409893	0	-0.6709397435	0.04430828616	87.51877594	1.0
51	0	-4.371409893	0	-3.31994319	1.14910984	87.79956055	1.0
52	0	-4.371409893	0	-1.202397346	1.431413889	87.91136169	1.0
53	0	-4.371409893	0	1.30840385	-0.707777679	87.91081238	1.0
54	0	-4.371409893	0	3.523530483	-1.83636713	87.98112488	1.0
[LeftFoot]
47	0	-3.918009996	0	-87.57390594	115.3681793	-27.77441406	1.0
48	0	-3.918009996	0	-88.61474609	115.0297775	-35.35729599	1.0
49	0	-3.918009996	0	-87.78979492	115.5225449	-38.88482666	1.0
50	0	-3.918009996	0	-89.1711731	116.3673172	-42.23068237	1.0
51	0	-3.918009996	0	-92.98416138	115.7687988	-47.1951828	1.0
52	0	-3.918009996	0	-93.41164398	115.4649811	-48.02669907	1.0
53	0	-3.918009996	0	-91.07261658	114.9676895	-46.74414063	1.0
54	0	-3.918009996	0	-92.69712067	114.4878998	-48.90861893	1.0
[LeftToeBase]
47	0	-0.5927900076	1.367989898	0	0	0	1.0
48	0	-0.5927900076	1.367989898	0	0	0	1.0
49	0	-0.5927900076	1.367989898	0	0	0	1.0
50	0	-0.5927900076	1.367989898	0	0	0	1.0
51	0	-0.5927900076	1.367989898	0	0	0	1.0
52	0	-0.5927900076	1.367989898	0	0	0	1.0
53	0	-0.5927900076	1.367989898	0	0	0	1.0
54	0	-0.5927900076	1.367989898	0	0	0	1.0
[RightUpLeg]
47	-0.9119900465	0	0	-18.94219208	-0.7080455422	97.1251297	1.0
48	-0.9119900465	0	0	-16.67516136	-1.792355299	98.90420532	1.0
49	-0.9119900465	0	0	-15.94974709	-4.813299179	99.98046112	1.0
50	-0.9119900465	0	0	-13.78452492	-7.827672482	99.94416809	1.0
51	-0.9119900465	0	0	-11.59369183	-10.59205055	98.26597595	1.0
52	-0.9119900465	0	0	-8.459162712	-13.33128262	96.3553772	1.0
53	-0.9119900465	0	0	-3.283261538	-12.29563618	94.61065674	1.0
54	-0.9119900465	0	0	1.810631871	-11.61778641	93.8764267	1.0
[RightLeg]
47	0	-4.371409893	0	8.74464798	-2.280303955	86.62167358	1.0
48	0	-4.371409893	0	12.84046268	-1.545073032	85.4043045	1.0
49	0	-4.371409893	0	19.3585453	1.204769135	82.90745544	1.0
50	0	-4.371409893	0	26.18293571	3.077782631	80.62349701	1.0
51	0	-4.371409893	0	31.58145142	3.520098448	78.89245605	1.0
52	0	-4.371409893	0	33.96748352	3.133613348	76.8910675	1.0
53	0	-4.371409893	0	34.86732101	1.646773219	76.84247589	1.0
54	0	-4.371409893	0	35.42346954	3.636371136	77.01768494	1.0
[RightFoot]
47	0	-3.918009996	0	35.1268425	63.36769867	71.82940674	1.0
48	0	-3.918009996	0	35.94694138	61.44654846	73.82487488	1.0
49	0	-3.918009996	0	33.94918442	60.18366623	75.70890045	1.0
50	0	-3.918009996	0	29.69158554	58.88221359	75.5411377	1.0
51	0	-3.918009996	0	27.02135086	57.49240112	75.18566895	1.0
52	0	-3.918009996	0	25.99025345	57.90095139	74.35195923	1.0
53	0	-3.918009996	0	31.85622215	55.7661705	79.04232788	1.0
54	0	-3.918009996	0	30.70664787	58.21070099	77.376297	1.0
[RightToeBase]
47	0	-0.5927900076	1.367989898	0	0	0	1.0
48	0	-0.5927900076	1.367989898	0	0	0	1.0
49	0	-0.5927900076	1.367989898	0	0	0	1.0
50	0	-0.5927900076	1.367989898	0	0	0	1.0
51	0	-0.5927900076	1.367989898	0	0	0	1.0
52	0	-0.5927900076	1.367989898	0	0	0	1.0
53	0	-0.5927900076	1.367989898	0	0	0	1.0
54	0	-0.5927900076	1.367989898	0	0	0	1.0
[EndOfFile]
